<?xml version="1.0" encoding="UTF-8"?>
                <svg class="banner-bg-svg" width="1440px" height="765px" viewBox="0 0 1440 765" version="1.1" xmlns="http://www.w3.org/2000/svg" xmlns:xlink="http://www.w3.org/1999/xlink">
                    <title>Hero 2</title>
                    <defs>
                        <path d="M1440,0 L0,0 L0,641 L846.677208,641 C985.483424,641 1104.50288,540.925842 1129.64497,403.071939 C1139.6433,348.235077 1150.27764,289.93695 1160.25688,235.216341 C1185.11276,98.9373168 1302.77749,0 1440,0 Z" id="path-1"></path>
                        <polygon id="path-3" points="0 0 520 0 520 178 0 178"></polygon>
                    </defs>
                    <g id="Page-1" stroke="none" stroke-width="1" fill="none" fill-rule="evenodd">
                        <g id="Header-Variation-2" transform="translate(0.000000, -147.000000)">
                            <g id="Hero" transform="translate(0.000000, 147.000000)">
                                <path d="M374,641.059427 C426.576522,641.059427 471.409167,639.373091 522.633418,653.966515 C566.919754,666.583228 594.318289,703.044823 645.449066,706.646828 C702.61936,710.674809 759.291122,697.508325 816.201764,705.301068 C841.310164,708.738889 865.125494,722.936171 890.503933,727.068322 C988.387744,743.005338 1079.30248,773.230456 1179.45046,762.892635 C1244.42072,756.18597 1276.83574,679.170277 1338.2176,664.467322 C1364.17247,658.250241 1438.07477,651.92477 1438.97836,650.044471 C1439.13935,649.716446 1440,631.491121 1440,631.119739" id="Fill-1" fill="#D1C4D8"></path>
                                <rect id="Rectangle" fill="#D1C4D8" x="0" y="0" width="1440" height="641"></rect>
                                <g id="Fill-10">
                                    <mask id="mask-2" fill="white">
                                        <use xlink:href="#path-1"></use>
                                    </mask>
                                    <use id="Mask" fill="#423062" xlink:href="#path-1"></use>
                                    <path d="M723.589813,707.146513 C725.56959,707.146513 727.17468,708.68264 727.17468,710.574438 C727.17468,712.4686 725.56959,714 723.589813,714 C721.60509,714 720,712.4686 720,710.574438 C720,708.68264 721.60509,707.146513 723.589813,707.146513 Z M759.455795,707.146513 C761.435571,707.146513 763.040662,708.68264 763.040662,710.574438 C763.040662,712.4686 761.435571,714 759.455795,714 C757.472309,714 755.865982,712.4686 755.865982,710.574438 C755.865982,708.68264 757.472309,707.146513 759.455795,707.146513 Z M903.455795,707.146513 C905.435571,707.146513 907.040662,708.68264 907.040662,710.574438 C907.040662,712.4686 905.435571,714 903.455795,714 C901.472309,714 899.865982,712.4686 899.865982,710.574438 C899.865982,708.68264 901.472309,707.146513 903.455795,707.146513 Z M867.589813,707.146513 C869.56959,707.146513 871.17468,708.68264 871.17468,710.574438 C871.17468,712.4686 869.56959,714 867.589813,714 C865.60509,714 864,712.4686 864,710.574438 C864,708.68264 865.60509,707.146513 867.589813,707.146513 Z M941.62358,707.141787 C943.603357,707.141787 945.208447,708.677913 945.208447,710.569712 C945.208447,712.463874 943.603357,713.995273 941.62358,713.995273 C939.638858,713.995273 938.032531,712.463874 938.032531,710.569712 C938.032531,708.677913 939.638858,707.141787 941.62358,707.141787 Z M797.62358,707.141787 C799.603357,707.141787 801.208447,708.677913 801.208447,710.569712 C801.208447,712.463874 799.603357,713.995273 797.62358,713.995273 C795.638858,713.995273 794.032531,712.463874 794.032531,710.569712 C794.032531,708.677913 795.638858,707.141787 797.62358,707.141787 Z M977.489562,707.141787 C979.469338,707.141787 981.074429,708.677913 981.074429,710.569712 C981.074429,712.463874 979.469338,713.995273 977.489562,713.995273 C975.504839,713.995273 973.899749,712.463874 973.899749,710.569712 C973.899749,708.677913 975.504839,707.141787 977.489562,707.141787 Z M833.489562,707.141787 C835.469338,707.141787 837.074429,708.677913 837.074429,710.569712 C837.074429,712.463874 835.469338,713.995273 833.489562,713.995273 C831.504839,713.995273 829.899749,712.463874 829.899749,710.569712 C829.899749,708.677913 831.504839,707.141787 833.489562,707.141787 Z M741.521568,690.013978 C743.501344,690.013978 745.111381,691.550104 745.111381,693.441903 C745.111381,695.336065 743.501344,696.867465 741.521568,696.867465 C739.541791,696.867465 737.936701,695.336065 737.936701,693.441903 C737.936701,691.550104 739.541791,690.013978 741.521568,690.013978 Z M777.381366,690.013978 C779.361142,690.013978 780.966233,691.550104 780.966233,693.441903 C780.966233,695.336065 779.361142,696.867465 777.381366,696.867465 C775.40159,696.867465 773.796499,695.336065 773.796499,693.441903 C773.796499,691.550104 775.40159,690.013978 777.381366,690.013978 Z M921.381366,690.013978 C923.361142,690.013978 924.966233,691.550104 924.966233,693.441903 C924.966233,695.336065 923.361142,696.867465 921.381366,696.867465 C919.40159,696.867465 917.796499,695.336065 917.796499,693.441903 C917.796499,691.550104 919.40159,690.013978 921.381366,690.013978 Z M885.521568,690.013978 C887.501344,690.013978 889.111381,691.550104 889.111381,693.441903 C889.111381,695.336065 887.501344,696.867465 885.521568,696.867465 C883.541791,696.867465 881.936701,695.336065 881.936701,693.441903 C881.936701,691.550104 883.541791,690.013978 885.521568,690.013978 Z M959.554098,690.009251 C961.533874,690.009251 963.143911,691.545378 963.143911,693.437176 C963.143911,695.331338 961.533874,696.862738 959.554098,696.862738 C957.574321,696.862738 955.969231,695.331338 955.969231,693.437176 C955.969231,691.545378 957.574321,690.009251 959.554098,690.009251 Z M995.413896,690.009251 C997.393673,690.009251 998.998763,691.545378 998.998763,693.437176 C998.998763,695.331338 997.393673,696.862738 995.413896,696.862738 C993.43412,696.862738 991.82903,695.331338 991.82903,693.437176 C991.82903,691.545378 993.43412,690.009251 995.413896,690.009251 Z M851.413896,690.009251 C853.393673,690.009251 854.998763,691.545378 854.998763,693.437176 C854.998763,695.331338 853.393673,696.862738 851.413896,696.862738 C849.43412,696.862738 847.82903,695.331338 847.82903,693.437176 C847.82903,691.545378 849.43412,690.009251 851.413896,690.009251 Z M815.554098,690.009251 C817.533874,690.009251 819.143911,691.545378 819.143911,693.437176 C819.143911,695.331338 817.533874,696.862738 815.554098,696.862738 C813.574321,696.862738 811.969231,695.331338 811.969231,693.437176 C811.969231,691.545378 813.574321,690.009251 815.554098,690.009251 Z M759.455795,672.880261 C761.435571,672.880261 763.040662,674.416387 763.040662,676.308186 C763.040662,678.202348 761.435571,679.736111 759.455795,679.736111 C757.472309,679.736111 755.865982,678.202348 755.865982,676.308186 C755.865982,674.416387 757.472309,672.880261 759.455795,672.880261 Z M867.589813,672.880261 C869.56959,672.880261 871.17468,674.416387 871.17468,676.308186 C871.17468,678.202348 869.56959,679.736111 867.589813,679.736111 C865.60509,679.736111 864,678.202348 864,676.308186 C864,674.416387 865.60509,672.880261 867.589813,672.880261 Z M903.455795,672.880261 C905.435571,672.880261 907.040662,674.416387 907.040662,676.308186 C907.040662,678.202348 905.435571,679.736111 903.455795,679.736111 C901.472309,679.736111 899.865982,678.202348 899.865982,676.308186 C899.865982,674.416387 901.472309,672.880261 903.455795,672.880261 Z M723.589813,672.880261 C725.56959,672.880261 727.17468,674.416387 727.17468,676.308186 C727.17468,678.202348 725.56959,679.736111 723.589813,679.736111 C721.60509,679.736111 720,678.202348 720,676.308186 C720,674.416387 721.60509,672.880261 723.589813,672.880261 Z M977.489562,672.875534 C979.469338,672.875534 981.074429,674.411661 981.074429,676.30346 C981.074429,678.197621 979.469338,679.731384 977.489562,679.731384 C975.504839,679.731384 973.899749,678.197621 973.899749,676.30346 C973.899749,674.411661 975.504839,672.875534 977.489562,672.875534 Z M941.62358,672.875534 C943.603357,672.875534 945.208447,674.411661 945.208447,676.30346 C945.208447,678.197621 943.603357,679.731384 941.62358,679.731384 C939.638858,679.731384 938.032531,678.197621 938.032531,676.30346 C938.032531,674.411661 939.638858,672.875534 941.62358,672.875534 Z M797.62358,672.875534 C799.603357,672.875534 801.208447,674.411661 801.208447,676.30346 C801.208447,678.197621 799.603357,679.731384 797.62358,679.731384 C795.638858,679.731384 794.032531,678.197621 794.032531,676.30346 C794.032531,674.411661 795.638858,672.875534 797.62358,672.875534 Z M833.489562,672.875534 C835.469338,672.875534 837.074429,674.411661 837.074429,676.30346 C837.074429,678.197621 835.469338,679.731384 833.489562,679.731384 C831.504839,679.731384 829.899749,678.197621 829.899749,676.30346 C829.899749,674.411661 831.504839,672.875534 833.489562,672.875534 Z M921.381366,655.747726 C923.361142,655.747726 924.966233,657.281489 924.966233,659.173287 C924.966233,661.067449 923.361142,662.601212 921.381366,662.601212 C919.40159,662.601212 917.796499,661.067449 917.796499,659.173287 C917.796499,657.281489 919.40159,655.747726 921.381366,655.747726 Z M885.521568,655.747726 C887.501344,655.747726 889.111381,657.281489 889.111381,659.173287 C889.111381,661.067449 887.501344,662.601212 885.521568,662.601212 C883.541791,662.601212 881.936701,661.067449 881.936701,659.173287 C881.936701,657.281489 883.541791,655.747726 885.521568,655.747726 Z M741.521568,655.747726 C743.501344,655.747726 745.111381,657.281489 745.111381,659.173287 C745.111381,661.067449 743.501344,662.601212 741.521568,662.601212 C739.541791,662.601212 737.936701,661.067449 737.936701,659.173287 C737.936701,657.281489 739.541791,655.747726 741.521568,655.747726 Z M777.381366,655.747726 C779.361142,655.747726 780.966233,657.281489 780.966233,659.173287 C780.966233,661.067449 779.361142,662.601212 777.381366,662.601212 C775.40159,662.601212 773.796499,661.067449 773.796499,659.173287 C773.796499,657.281489 775.40159,655.747726 777.381366,655.747726 Z M995.413896,655.742999 C997.393673,655.742999 998.998763,657.276762 998.998763,659.168561 C998.998763,661.062723 997.393673,662.596486 995.413896,662.596486 C993.43412,662.596486 991.82903,661.062723 991.82903,659.168561 C991.82903,657.276762 993.43412,655.742999 995.413896,655.742999 Z M851.413896,655.742999 C853.393673,655.742999 854.998763,657.276762 854.998763,659.168561 C854.998763,661.062723 853.393673,662.596486 851.413896,662.596486 C849.43412,662.596486 847.82903,661.062723 847.82903,659.168561 C847.82903,657.276762 849.43412,655.742999 851.413896,655.742999 Z M815.554098,655.742999 C817.533874,655.742999 819.143911,657.276762 819.143911,659.168561 C819.143911,661.062723 817.533874,662.596486 815.554098,662.596486 C813.574321,662.596486 811.969231,661.062723 811.969231,659.168561 C811.969231,657.276762 813.574321,655.742999 815.554098,655.742999 Z M959.554098,655.742999 C961.533874,655.742999 963.143911,657.276762 963.143911,659.168561 C963.143911,661.062723 961.533874,662.596486 959.554098,662.596486 C957.574321,662.596486 955.969231,661.062723 955.969231,659.168561 C955.969231,657.276762 957.574321,655.742999 959.554098,655.742999 Z M833.489562,642.398788 C835.469338,642.398788 837.074429,643.936096 837.074429,645.826713 C837.074429,647.720875 835.469338,649.253456 833.489562,649.253456 C831.504839,649.253456 829.899749,647.720875 829.899749,645.826713 C829.899749,643.936096 831.504839,642.398788 833.489562,642.398788 Z M977.489562,642.398788 C979.469338,642.398788 981.074429,643.936096 981.074429,645.826713 C981.074429,647.720875 979.469338,649.253456 977.489562,649.253456 C975.504839,649.253456 973.899749,647.720875 973.899749,645.826713 C973.899749,643.936096 975.504839,642.398788 977.489562,642.398788 Z M941.62358,642.398788 C943.603357,642.398788 945.208447,643.936096 945.208447,645.826713 C945.208447,647.720875 943.603357,649.253456 941.62358,649.253456 C939.638858,649.253456 938.033767,647.720875 938.033767,645.826713 C938.033767,643.936096 939.638858,642.398788 941.62358,642.398788 Z M797.62358,642.398788 C799.603357,642.398788 801.208447,643.936096 801.208447,645.826713 C801.208447,647.720875 799.603357,649.253456 797.62358,649.253456 C795.638858,649.253456 794.033767,647.720875 794.033767,645.826713 C794.033767,643.936096 795.638858,642.398788 797.62358,642.398788 Z M867.589813,642.398788 C869.56959,642.398788 871.17468,643.934914 871.17468,645.826713 C871.17468,647.720875 869.56959,649.252274 867.589813,649.252274 C865.60509,649.252274 864,647.720875 864,645.826713 C864,643.934914 865.60509,642.398788 867.589813,642.398788 Z M903.455795,642.398788 C905.435571,642.398788 907.040662,643.934914 907.040662,645.826713 C907.040662,647.720875 905.435571,649.252274 903.455795,649.252274 C901.472309,649.252274 899.865982,647.720875 899.865982,645.826713 C899.865982,643.934914 901.472309,642.398788 903.455795,642.398788 Z M723.589813,642.398788 C725.56959,642.398788 727.17468,643.934914 727.17468,645.826713 C727.17468,647.720875 725.56959,649.252274 723.589813,649.252274 C721.60509,649.252274 720,647.720875 720,645.826713 C720,643.934914 721.60509,642.398788 723.589813,642.398788 Z M759.455795,642.398788 C761.435571,642.398788 763.040662,643.934914 763.040662,645.826713 C763.040662,647.720875 761.435571,649.252274 759.455795,649.252274 C757.472309,649.252274 755.865982,647.720875 755.865982,645.826713 C755.865982,643.934914 757.472309,642.398788 759.455795,642.398788 Z M921.381366,625.266252 C923.361142,625.266252 924.966233,626.802379 924.966233,628.694177 C924.966233,630.588339 923.361142,632.119739 921.381366,632.119739 C919.40159,632.119739 917.796499,630.588339 917.796499,628.694177 C917.796499,626.802379 919.40159,625.266252 921.381366,625.266252 Z M995.415133,625.266252 C997.394909,625.266252 999,626.802379 999,628.694177 C999,630.588339 997.394909,632.119739 995.415133,632.119739 C993.435357,632.119739 991.830266,630.588339 991.830266,628.694177 C991.830266,626.802379 993.435357,625.266252 995.415133,625.266252 Z M959.555335,625.266252 C961.535111,625.266252 963.145148,626.802379 963.145148,628.694177 C963.145148,630.588339 961.535111,632.119739 959.555335,632.119739 C957.575558,632.119739 955.970468,630.588339 955.970468,628.694177 C955.970468,626.802379 957.575558,625.266252 959.555335,625.266252 Z M741.521568,625.266252 C743.501344,625.266252 745.111381,626.802379 745.111381,628.694177 C745.111381,630.588339 743.501344,632.119739 741.521568,632.119739 C739.541791,632.119739 737.936701,630.588339 737.936701,628.694177 C737.936701,626.802379 739.541791,625.266252 741.521568,625.266252 Z M777.381366,625.266252 C779.361142,625.266252 780.966233,626.802379 780.966233,628.694177 C780.966233,630.588339 779.361142,632.119739 777.381366,632.119739 C775.40159,632.119739 773.796499,630.588339 773.796499,628.694177 C773.796499,626.802379 775.40159,625.266252 777.381366,625.266252 Z M851.415133,625.266252 C853.394909,625.266252 855,626.802379 855,628.694177 C855,630.588339 853.394909,632.119739 851.415133,632.119739 C849.435357,632.119739 847.830266,630.588339 847.830266,628.694177 C847.830266,626.802379 849.435357,625.266252 851.415133,625.266252 Z M815.555335,625.266252 C817.535111,625.266252 819.145148,626.802379 819.145148,628.694177 C819.145148,630.588339 817.535111,632.119739 815.555335,632.119739 C813.575558,632.119739 811.970468,630.588339 811.970468,628.694177 C811.970468,626.802379 813.575558,625.266252 815.555335,625.266252 Z M885.521568,625.266252 C887.501344,625.266252 889.111381,626.802379 889.111381,628.694177 C889.111381,630.588339 887.501344,632.119739 885.521568,632.119739 C883.541791,632.119739 881.936701,630.588339 881.936701,628.694177 C881.936701,626.802379 883.541791,625.266252 885.521568,625.266252 Z M941.62358,608.132535 C943.603357,608.132535 945.208447,609.669843 945.208447,611.561642 C945.208447,613.455804 943.603357,614.989567 941.62358,614.989567 C939.638858,614.989567 938.033767,613.455804 938.033767,611.561642 C938.033767,609.669843 939.638858,608.132535 941.62358,608.132535 Z M977.489562,608.132535 C979.469338,608.132535 981.074429,609.669843 981.074429,611.561642 C981.074429,613.455804 979.469338,614.989567 977.489562,614.989567 C975.504839,614.989567 973.899749,613.455804 973.899749,611.561642 C973.899749,609.669843 975.504839,608.132535 977.489562,608.132535 Z M903.455795,608.132535 C905.435571,608.132535 907.040662,609.668662 907.040662,611.561642 C907.040662,613.455804 905.435571,614.989567 903.455795,614.989567 C901.472309,614.989567 899.865982,613.455804 899.865982,611.561642 C899.865982,609.668662 901.472309,608.132535 903.455795,608.132535 Z M723.589813,608.132535 C725.56959,608.132535 727.17468,609.668662 727.17468,611.561642 C727.17468,613.455804 725.56959,614.989567 723.589813,614.989567 C721.60509,614.989567 720,613.455804 720,611.561642 C720,609.668662 721.60509,608.132535 723.589813,608.132535 Z M759.455795,608.132535 C761.435571,608.132535 763.040662,609.668662 763.040662,611.561642 C763.040662,613.455804 761.435571,614.989567 759.455795,614.989567 C757.472309,614.989567 755.865982,613.455804 755.865982,611.561642 C755.865982,609.668662 757.472309,608.132535 759.455795,608.132535 Z M833.489562,608.132535 C835.469338,608.132535 837.074429,609.669843 837.074429,611.561642 C837.074429,613.455804 835.469338,614.989567 833.489562,614.989567 C831.504839,614.989567 829.899749,613.455804 829.899749,611.561642 C829.899749,609.669843 831.504839,608.132535 833.489562,608.132535 Z M797.62358,608.132535 C799.603357,608.132535 801.208447,609.669843 801.208447,611.561642 C801.208447,613.455804 799.603357,614.989567 797.62358,614.989567 C795.638858,614.989567 794.033767,613.455804 794.033767,611.561642 C794.033767,609.669843 795.638858,608.132535 797.62358,608.132535 Z M867.589813,608.132535 C869.56959,608.132535 871.17468,609.668662 871.17468,611.561642 C871.17468,613.455804 869.56959,614.989567 867.589813,614.989567 C865.60509,614.989567 864,613.455804 864,611.561642 C864,609.668662 865.60509,608.132535 867.589813,608.132535 Z M885.521568,591 C887.501344,591 889.111381,592.533763 889.111381,594.425562 C889.111381,596.319724 887.501344,597.853487 885.521568,597.853487 C883.541791,597.853487 881.936701,596.319724 881.936701,594.425562 C881.936701,592.533763 883.541791,591 885.521568,591 Z M921.381366,591 C923.361142,591 924.966233,592.533763 924.966233,594.425562 C924.966233,596.319724 923.361142,597.853487 921.381366,597.853487 C919.40159,597.853487 917.796499,596.319724 917.796499,594.425562 C917.796499,592.533763 919.40159,591 921.381366,591 Z M995.415133,591 C997.394909,591 999,592.533763 999,594.425562 C999,596.319724 997.394909,597.853487 995.415133,597.853487 C993.435357,597.853487 991.830266,596.319724 991.830266,594.425562 C991.830266,592.533763 993.435357,591 995.415133,591 Z M959.555335,591 C961.535111,591 963.145148,592.533763 963.145148,594.425562 C963.145148,596.319724 961.535111,597.853487 959.555335,597.853487 C957.575558,597.853487 955.970468,596.319724 955.970468,594.425562 C955.970468,592.533763 957.575558,591 959.555335,591 Z M815.555335,591 C817.535111,591 819.145148,592.533763 819.145148,594.425562 C819.145148,596.319724 817.535111,597.853487 815.555335,597.853487 C813.575558,597.853487 811.970468,596.319724 811.970468,594.425562 C811.970468,592.533763 813.575558,591 815.555335,591 Z M851.415133,591 C853.394909,591 855,592.533763 855,594.425562 C855,596.319724 853.394909,597.853487 851.415133,597.853487 C849.435357,597.853487 847.830266,596.319724 847.830266,594.425562 C847.830266,592.533763 849.435357,591 851.415133,591 Z M777.381366,591 C779.361142,591 780.966233,592.533763 780.966233,594.425562 C780.966233,596.319724 779.361142,597.853487 777.381366,597.853487 C775.40159,597.853487 773.796499,596.319724 773.796499,594.425562 C773.796499,592.533763 775.40159,591 777.381366,591 Z M741.521568,591 C743.501344,591 745.111381,592.533763 745.111381,594.425562 C745.111381,596.319724 743.501344,597.853487 741.521568,597.853487 C739.541791,597.853487 737.936701,596.319724 737.936701,594.425562 C737.936701,592.533763 739.541791,591 741.521568,591 Z M723.589813,574.146513 C725.56959,574.146513 727.17468,575.68264 727.17468,577.574438 C727.17468,579.4686 725.56959,581 723.589813,581 C721.60509,581 720,579.4686 720,577.574438 C720,575.68264 721.60509,574.146513 723.589813,574.146513 Z M759.455795,574.146513 C761.435571,574.146513 763.040662,575.68264 763.040662,577.574438 C763.040662,579.4686 761.435571,581 759.455795,581 C757.472309,581 755.865982,579.4686 755.865982,577.574438 C755.865982,575.68264 757.472309,574.146513 759.455795,574.146513 Z M903.455795,574.146513 C905.435571,574.146513 907.040662,575.68264 907.040662,577.574438 C907.040662,579.4686 905.435571,581 903.455795,581 C901.472309,581 899.865982,579.4686 899.865982,577.574438 C899.865982,575.68264 901.472309,574.146513 903.455795,574.146513 Z M867.589813,574.146513 C869.56959,574.146513 871.17468,575.68264 871.17468,577.574438 C871.17468,579.4686 869.56959,581 867.589813,581 C865.60509,581 864,579.4686 864,577.574438 C864,575.68264 865.60509,574.146513 867.589813,574.146513 Z M977.489562,574.141787 C979.469338,574.141787 981.074429,575.677913 981.074429,577.569712 C981.074429,579.463874 979.469338,580.995274 977.489562,580.995274 C975.504839,580.995274 973.899749,579.463874 973.899749,577.569712 C973.899749,575.677913 975.504839,574.141787 977.489562,574.141787 Z M941.62358,574.141787 C943.603357,574.141787 945.208447,575.677913 945.208447,577.569712 C945.208447,579.463874 943.603357,580.995274 941.62358,580.995274 C939.638858,580.995274 938.032531,579.463874 938.032531,577.569712 C938.032531,575.677913 939.638858,574.141787 941.62358,574.141787 Z M833.489562,574.141787 C835.469338,574.141787 837.074429,575.677913 837.074429,577.569712 C837.074429,579.463874 835.469338,580.995274 833.489562,580.995274 C831.504839,580.995274 829.899749,579.463874 829.899749,577.569712 C829.899749,575.677913 831.504839,574.141787 833.489562,574.141787 Z M797.62358,574.141787 C799.603357,574.141787 801.208447,575.677913 801.208447,577.569712 C801.208447,579.463874 799.603357,580.995274 797.62358,580.995274 C795.638858,580.995274 794.032531,579.463874 794.032531,577.569712 C794.032531,575.677913 795.638858,574.141787 797.62358,574.141787 Z M741.521568,557.013978 C743.501344,557.013978 745.111381,558.550104 745.111381,560.441903 C745.111381,562.336065 743.501344,563.867465 741.521568,563.867465 C739.541791,563.867465 737.936701,562.336065 737.936701,560.441903 C737.936701,558.550104 739.541791,557.013978 741.521568,557.013978 Z M885.521568,557.013978 C887.501344,557.013978 889.111381,558.550104 889.111381,560.441903 C889.111381,562.336065 887.501344,563.867465 885.521568,563.867465 C883.541791,563.867465 881.936701,562.336065 881.936701,560.441903 C881.936701,558.550104 883.541791,557.013978 885.521568,557.013978 Z M921.381366,557.013978 C923.361142,557.013978 924.966233,558.550104 924.966233,560.441903 C924.966233,562.336065 923.361142,563.867465 921.381366,563.867465 C919.40159,563.867465 917.796499,562.336065 917.796499,560.441903 C917.796499,558.550104 919.40159,557.013978 921.381366,557.013978 Z M777.381366,557.013978 C779.361142,557.013978 780.966233,558.550104 780.966233,560.441903 C780.966233,562.336065 779.361142,563.867465 777.381366,563.867465 C775.40159,563.867465 773.796499,562.336065 773.796499,560.441903 C773.796499,558.550104 775.40159,557.013978 777.381366,557.013978 Z M851.413896,557.009251 C853.393673,557.009251 854.998763,558.545378 854.998763,560.437176 C854.998763,562.331338 853.393673,563.862738 851.413896,563.862738 C849.43412,563.862738 847.82903,562.331338 847.82903,560.437176 C847.82903,558.545378 849.43412,557.009251 851.413896,557.009251 Z M995.413896,557.009251 C997.393673,557.009251 998.998763,558.545378 998.998763,560.437176 C998.998763,562.331338 997.393673,563.862738 995.413896,563.862738 C993.43412,563.862738 991.82903,562.331338 991.82903,560.437176 C991.82903,558.545378 993.43412,557.009251 995.413896,557.009251 Z M959.554098,557.009251 C961.533874,557.009251 963.143911,558.545378 963.143911,560.437176 C963.143911,562.331338 961.533874,563.862738 959.554098,563.862738 C957.574321,563.862738 955.969231,562.331338 955.969231,560.437176 C955.969231,558.545378 957.574321,557.009251 959.554098,557.009251 Z M815.554098,557.009251 C817.533874,557.009251 819.143911,558.545378 819.143911,560.437176 C819.143911,562.331338 817.533874,563.862738 815.554098,563.862738 C813.574321,563.862738 811.969231,562.331338 811.969231,560.437176 C811.969231,558.545378 813.574321,557.009251 815.554098,557.009251 Z M723.589813,539.880261 C725.56959,539.880261 727.17468,541.416387 727.17468,543.308186 C727.17468,545.202348 725.56959,546.736111 723.589813,546.736111 C721.60509,546.736111 720,545.202348 720,543.308186 C720,541.416387 721.60509,539.880261 723.589813,539.880261 Z M903.455795,539.880261 C905.435571,539.880261 907.040662,541.416387 907.040662,543.308186 C907.040662,545.202348 905.435571,546.736111 903.455795,546.736111 C901.472309,546.736111 899.865982,545.202348 899.865982,543.308186 C899.865982,541.416387 901.472309,539.880261 903.455795,539.880261 Z M867.589813,539.880261 C869.56959,539.880261 871.17468,541.416387 871.17468,543.308186 C871.17468,545.202348 869.56959,546.736111 867.589813,546.736111 C865.60509,546.736111 864,545.202348 864,543.308186 C864,541.416387 865.60509,539.880261 867.589813,539.880261 Z M759.455795,539.880261 C761.435571,539.880261 763.040662,541.416387 763.040662,543.308186 C763.040662,545.202348 761.435571,546.736111 759.455795,546.736111 C757.472309,546.736111 755.865982,545.202348 755.865982,543.308186 C755.865982,541.416387 757.472309,539.880261 759.455795,539.880261 Z M797.62358,539.875534 C799.603357,539.875534 801.208447,541.411661 801.208447,543.303459 C801.208447,545.197621 799.603357,546.731384 797.62358,546.731384 C795.638858,546.731384 794.032531,545.197621 794.032531,543.303459 C794.032531,541.411661 795.638858,539.875534 797.62358,539.875534 Z M941.62358,539.875534 C943.603357,539.875534 945.208447,541.411661 945.208447,543.30346 C945.208447,545.197621 943.603357,546.731384 941.62358,546.731384 C939.638858,546.731384 938.032531,545.197621 938.032531,543.30346 C938.032531,541.411661 939.638858,539.875534 941.62358,539.875534 Z M977.489562,539.875534 C979.469338,539.875534 981.074429,541.411661 981.074429,543.30346 C981.074429,545.197621 979.469338,546.731384 977.489562,546.731384 C975.504839,546.731384 973.899749,545.197621 973.899749,543.30346 C973.899749,541.411661 975.504839,539.875534 977.489562,539.875534 Z M833.489562,539.875534 C835.469338,539.875534 837.074429,541.411661 837.074429,543.303459 C837.074429,545.197621 835.469338,546.731384 833.489562,546.731384 C831.504839,546.731384 829.899749,545.197621 829.899749,543.303459 C829.899749,541.411661 831.504839,539.875534 833.489562,539.875534 Z M741.521568,522.747726 C743.501344,522.747726 745.111381,524.281489 745.111381,526.173287 C745.111381,528.067449 743.501344,529.601212 741.521568,529.601212 C739.541791,529.601212 737.936701,528.067449 737.936701,526.173287 C737.936701,524.281489 739.541791,522.747726 741.521568,522.747726 Z M777.381366,522.747726 C779.361142,522.747726 780.966233,524.281489 780.966233,526.173287 C780.966233,528.067449 779.361142,529.601212 777.381366,529.601212 C775.40159,529.601212 773.796499,528.067449 773.796499,526.173287 C773.796499,524.281489 775.40159,522.747726 777.381366,522.747726 Z M921.381366,522.747726 C923.361142,522.747726 924.966233,524.281489 924.966233,526.173287 C924.966233,528.067449 923.361142,529.601212 921.381366,529.601212 C919.40159,529.601212 917.796499,528.067449 917.796499,526.173287 C917.796499,524.281489 919.40159,522.747726 921.381366,522.747726 Z M885.521568,522.747726 C887.501344,522.747726 889.111381,524.281489 889.111381,526.173287 C889.111381,528.067449 887.501344,529.601212 885.521568,529.601212 C883.541791,529.601212 881.936701,528.067449 881.936701,526.173287 C881.936701,524.281489 883.541791,522.747726 885.521568,522.747726 Z M851.413896,522.742999 C853.393673,522.742999 854.998763,524.276762 854.998763,526.168561 C854.998763,528.062723 853.393673,529.596486 851.413896,529.596486 C849.43412,529.596486 847.82903,528.062723 847.82903,526.168561 C847.82903,524.276762 849.43412,522.742999 851.413896,522.742999 Z M995.413896,522.742999 C997.393673,522.742999 998.998763,524.276762 998.998763,526.168561 C998.998763,528.062723 997.393673,529.596486 995.413896,529.596486 C993.43412,529.596486 991.82903,528.062723 991.82903,526.168561 C991.82903,524.276762 993.43412,522.742999 995.413896,522.742999 Z M959.554098,522.742999 C961.533874,522.742999 963.143911,524.276762 963.143911,526.168561 C963.143911,528.062723 961.533874,529.596486 959.554098,529.596486 C957.574321,529.596486 955.969231,528.062723 955.969231,526.168561 C955.969231,524.276762 957.574321,522.742999 959.554098,522.742999 Z M815.554098,522.742999 C817.533874,522.742999 819.143911,524.276762 819.143911,526.168561 C819.143911,528.062723 817.533874,529.596486 815.554098,529.596486 C813.574321,529.596486 811.969231,528.062723 811.969231,526.168561 C811.969231,524.276762 813.574321,522.742999 815.554098,522.742999 Z M941.62358,509.398788 C943.603357,509.398788 945.208447,510.936096 945.208447,512.826713 C945.208447,514.720875 943.603357,516.253456 941.62358,516.253456 C939.638858,516.253456 938.033767,514.720875 938.033767,512.826713 C938.033767,510.936096 939.638858,509.398788 941.62358,509.398788 Z M833.489562,509.398788 C835.469338,509.398788 837.074429,510.936096 837.074429,512.826713 C837.074429,514.720875 835.469338,516.253456 833.489562,516.253456 C831.504839,516.253456 829.899749,514.720875 829.899749,512.826713 C829.899749,510.936096 831.504839,509.398788 833.489562,509.398788 Z M797.62358,509.398788 C799.603357,509.398788 801.208447,510.936096 801.208447,512.826713 C801.208447,514.720875 799.603357,516.253456 797.62358,516.253456 C795.638858,516.253456 794.033767,514.720875 794.033767,512.826713 C794.033767,510.936096 795.638858,509.398788 797.62358,509.398788 Z M977.489562,509.398788 C979.469338,509.398788 981.074429,510.936096 981.074429,512.826713 C981.074429,514.720875 979.469338,516.253456 977.489562,516.253456 C975.504839,516.253456 973.899749,514.720875 973.899749,512.826713 C973.899749,510.936096 975.504839,509.398788 977.489562,509.398788 Z M723.589813,509.398788 C725.56959,509.398788 727.17468,510.934914 727.17468,512.826713 C727.17468,514.720875 725.56959,516.252274 723.589813,516.252274 C721.60509,516.252274 720,514.720875 720,512.826713 C720,510.934914 721.60509,509.398788 723.589813,509.398788 Z M759.455795,509.398788 C761.435571,509.398788 763.040662,510.934914 763.040662,512.826713 C763.040662,514.720875 761.435571,516.252274 759.455795,516.252274 C757.472309,516.252274 755.865982,514.720875 755.865982,512.826713 C755.865982,510.934914 757.472309,509.398788 759.455795,509.398788 Z M903.455795,509.398788 C905.435571,509.398788 907.040662,510.934914 907.040662,512.826713 C907.040662,514.720875 905.435571,516.252274 903.455795,516.252274 C901.472309,516.252274 899.865982,514.720875 899.865982,512.826713 C899.865982,510.934914 901.472309,509.398788 903.455795,509.398788 Z M867.589813,509.398788 C869.56959,509.398788 871.17468,510.934914 871.17468,512.826713 C871.17468,514.720875 869.56959,516.252274 867.589813,516.252274 C865.60509,516.252274 864,514.720875 864,512.826713 C864,510.934914 865.60509,509.398788 867.589813,509.398788 Z M885.521568,492.266252 C887.501344,492.266252 889.111381,493.802379 889.111381,495.694177 C889.111381,497.588339 887.501344,499.119739 885.521568,499.119739 C883.541791,499.119739 881.936701,497.588339 881.936701,495.694177 C881.936701,493.802379 883.541791,492.266252 885.521568,492.266252 Z M921.381366,492.266252 C923.361142,492.266252 924.966233,493.802379 924.966233,495.694177 C924.966233,497.588339 923.361142,499.119739 921.381366,499.119739 C919.40159,499.119739 917.796499,497.588339 917.796499,495.694177 C917.796499,493.802379 919.40159,492.266252 921.381366,492.266252 Z M995.415133,492.266252 C997.394909,492.266252 999,493.802379 999,495.694177 C999,497.588339 997.394909,499.119739 995.415133,499.119739 C993.435357,499.119739 991.830266,497.588339 991.830266,495.694177 C991.830266,493.802379 993.435357,492.266252 995.415133,492.266252 Z M959.555335,492.266252 C961.535111,492.266252 963.145148,493.802379 963.145148,495.694177 C963.145148,497.588339 961.535111,499.119739 959.555335,499.119739 C957.575558,499.119739 955.970468,497.588339 955.970468,495.694177 C955.970468,493.802379 957.575558,492.266252 959.555335,492.266252 Z M815.555335,492.266252 C817.535111,492.266252 819.145148,493.802379 819.145148,495.694177 C819.145148,497.588339 817.535111,499.119739 815.555335,499.119739 C813.575558,499.119739 811.970468,497.588339 811.970468,495.694177 C811.970468,493.802379 813.575558,492.266252 815.555335,492.266252 Z M851.415133,492.266252 C853.394909,492.266252 855,493.802379 855,495.694177 C855,497.588339 853.394909,499.119739 851.415133,499.119739 C849.435357,499.119739 847.830266,497.588339 847.830266,495.694177 C847.830266,493.802379 849.435357,492.266252 851.415133,492.266252 Z M777.381366,492.266252 C779.361142,492.266252 780.966233,493.802379 780.966233,495.694177 C780.966233,497.588339 779.361142,499.119739 777.381366,499.119739 C775.40159,499.119739 773.796499,497.588339 773.796499,495.694177 C773.796499,493.802379 775.40159,492.266252 777.381366,492.266252 Z M741.521568,492.266252 C743.501344,492.266252 745.111381,493.802379 745.111381,495.694177 C745.111381,497.588339 743.501344,499.119739 741.521568,499.119739 C739.541791,499.119739 737.936701,497.588339 737.936701,495.694177 C737.936701,493.802379 739.541791,492.266252 741.521568,492.266252 Z M941.62358,475.132535 C943.603357,475.132535 945.208447,476.669843 945.208447,478.561642 C945.208447,480.455804 943.603357,481.989567 941.62358,481.989567 C939.638858,481.989567 938.033767,480.455804 938.033767,478.561642 C938.033767,476.669843 939.638858,475.132535 941.62358,475.132535 Z M797.62358,475.132535 C799.603357,475.132535 801.208447,476.669843 801.208447,478.561642 C801.208447,480.455804 799.603357,481.989567 797.62358,481.989567 C795.638858,481.989567 794.033767,480.455804 794.033767,478.561642 C794.033767,476.669843 795.638858,475.132535 797.62358,475.132535 Z M977.489562,475.132535 C979.469338,475.132535 981.074429,476.669843 981.074429,478.561642 C981.074429,480.455804 979.469338,481.989567 977.489562,481.989567 C975.504839,481.989567 973.899749,480.455804 973.899749,478.561642 C973.899749,476.669843 975.504839,475.132535 977.489562,475.132535 Z M833.489562,475.132535 C835.469338,475.132535 837.074429,476.669843 837.074429,478.561642 C837.074429,480.455804 835.469338,481.989567 833.489562,481.989567 C831.504839,481.989567 829.899749,480.455804 829.899749,478.561642 C829.899749,476.669843 831.504839,475.132535 833.489562,475.132535 Z M759.455795,475.132535 C761.435571,475.132535 763.040662,476.668662 763.040662,478.561642 C763.040662,480.455804 761.435571,481.989567 759.455795,481.989567 C757.472309,481.989567 755.865982,480.455804 755.865982,478.561642 C755.865982,476.668662 757.472309,475.132535 759.455795,475.132535 Z M723.589813,475.132535 C725.56959,475.132535 727.17468,476.668662 727.17468,478.561642 C727.17468,480.455804 725.56959,481.989567 723.589813,481.989567 C721.60509,481.989567 720,480.455804 720,478.561642 C720,476.668662 721.60509,475.132535 723.589813,475.132535 Z M903.455795,475.132535 C905.435571,475.132535 907.040662,476.668662 907.040662,478.561642 C907.040662,480.455804 905.435571,481.989567 903.455795,481.989567 C901.472309,481.989567 899.865982,480.455804 899.865982,478.561642 C899.865982,476.668662 901.472309,475.132535 903.455795,475.132535 Z M867.589813,475.132535 C869.56959,475.132535 871.17468,476.668662 871.17468,478.561642 C871.17468,480.455804 869.56959,481.989567 867.589813,481.989567 C865.60509,481.989567 864,480.455804 864,478.561642 C864,476.668662 865.60509,475.132535 867.589813,475.132535 Z M921.381366,458 C923.361142,458 924.966233,459.533763 924.966233,461.425562 C924.966233,463.319724 923.361142,464.853487 921.381366,464.853487 C919.40159,464.853487 917.796499,463.319724 917.796499,461.425562 C917.796499,459.533763 919.40159,458 921.381366,458 Z M777.381366,458 C779.361142,458 780.966233,459.533763 780.966233,461.425562 C780.966233,463.319724 779.361142,464.853487 777.381366,464.853487 C775.40159,464.853487 773.796499,463.319724 773.796499,461.425562 C773.796499,459.533763 775.40159,458 777.381366,458 Z M741.521568,458 C743.501344,458 745.111381,459.533763 745.111381,461.425562 C745.111381,463.319724 743.501344,464.853487 741.521568,464.853487 C739.541791,464.853487 737.936701,463.319724 737.936701,461.425562 C737.936701,459.533763 739.541791,458 741.521568,458 Z M815.555335,458 C817.535111,458 819.145148,459.533763 819.145148,461.425562 C819.145148,463.319724 817.535111,464.853487 815.555335,464.853487 C813.575558,464.853487 811.970468,463.319724 811.970468,461.425562 C811.970468,459.533763 813.575558,458 815.555335,458 Z M851.415133,458 C853.394909,458 855,459.533763 855,461.425562 C855,463.319724 853.394909,464.853487 851.415133,464.853487 C849.435357,464.853487 847.830266,463.319724 847.830266,461.425562 C847.830266,459.533763 849.435357,458 851.415133,458 Z M885.521568,458 C887.501344,458 889.111381,459.533763 889.111381,461.425562 C889.111381,463.319724 887.501344,464.853487 885.521568,464.853487 C883.541791,464.853487 881.936701,463.319724 881.936701,461.425562 C881.936701,459.533763 883.541791,458 885.521568,458 Z M995.415133,458 C997.394909,458 999,459.533763 999,461.425562 C999,463.319724 997.394909,464.853487 995.415133,464.853487 C993.435357,464.853487 991.830266,463.319724 991.830266,461.425562 C991.830266,459.533763 993.435357,458 995.415133,458 Z M959.555335,458 C961.535111,458 963.145148,459.533763 963.145148,461.425562 C963.145148,463.319724 961.535111,464.853487 959.555335,464.853487 C957.575558,464.853487 955.970468,463.319724 955.970468,461.425562 C955.970468,459.533763 957.575558,458 959.555335,458 Z" id="Combined-Shape" fill="#423062" fill-rule="nonzero" opacity="0.6" mask="url(#mask-2)"></path>
                                    <path d="M428.589813,706.146513 C430.56959,706.146513 432.17468,707.68264 432.17468,709.574438 C432.17468,711.4686 430.56959,713 428.589813,713 C426.60509,713 425,711.4686 425,709.574438 C425,707.68264 426.60509,706.146513 428.589813,706.146513 Z M464.455795,706.146513 C466.435571,706.146513 468.040662,707.68264 468.040662,709.574438 C468.040662,711.4686 466.435571,713 464.455795,713 C462.472309,713 460.865982,711.4686 460.865982,709.574438 C460.865982,707.68264 462.472309,706.146513 464.455795,706.146513 Z M608.455795,706.146513 C610.435571,706.146513 612.040662,707.68264 612.040662,709.574438 C612.040662,711.4686 610.435571,713 608.455795,713 C606.472309,713 604.865982,711.4686 604.865982,709.574438 C604.865982,707.68264 606.472309,706.146513 608.455795,706.146513 Z M572.589813,706.146513 C574.56959,706.146513 576.17468,707.68264 576.17468,709.574438 C576.17468,711.4686 574.56959,713 572.589813,713 C570.60509,713 569,711.4686 569,709.574438 C569,707.68264 570.60509,706.146513 572.589813,706.146513 Z M646.62358,706.141787 C648.603357,706.141787 650.208447,707.677913 650.208447,709.569712 C650.208447,711.463874 648.603357,712.995273 646.62358,712.995273 C644.638858,712.995273 643.032531,711.463874 643.032531,709.569712 C643.032531,707.677913 644.638858,706.141787 646.62358,706.141787 Z M502.62358,706.141787 C504.603357,706.141787 506.208447,707.677913 506.208447,709.569712 C506.208447,711.463874 504.603357,712.995273 502.62358,712.995273 C500.638858,712.995273 499.032531,711.463874 499.032531,709.569712 C499.032531,707.677913 500.638858,706.141787 502.62358,706.141787 Z M682.489562,706.141787 C684.469338,706.141787 686.074429,707.677913 686.074429,709.569712 C686.074429,711.463874 684.469338,712.995273 682.489562,712.995273 C680.504839,712.995273 678.899749,711.463874 678.899749,709.569712 C678.899749,707.677913 680.504839,706.141787 682.489562,706.141787 Z M538.489562,706.141787 C540.469338,706.141787 542.074429,707.677913 542.074429,709.569712 C542.074429,711.463874 540.469338,712.995273 538.489562,712.995273 C536.504839,712.995273 534.899749,711.463874 534.899749,709.569712 C534.899749,707.677913 536.504839,706.141787 538.489562,706.141787 Z M446.521568,689.013978 C448.501344,689.013978 450.111381,690.550104 450.111381,692.441903 C450.111381,694.336065 448.501344,695.867465 446.521568,695.867465 C444.541791,695.867465 442.936701,694.336065 442.936701,692.441903 C442.936701,690.550104 444.541791,689.013978 446.521568,689.013978 Z M482.381366,689.013978 C484.361142,689.013978 485.966233,690.550104 485.966233,692.441903 C485.966233,694.336065 484.361142,695.867465 482.381366,695.867465 C480.40159,695.867465 478.796499,694.336065 478.796499,692.441903 C478.796499,690.550104 480.40159,689.013978 482.381366,689.013978 Z M626.381366,689.013978 C628.361142,689.013978 629.966233,690.550104 629.966233,692.441903 C629.966233,694.336065 628.361142,695.867465 626.381366,695.867465 C624.40159,695.867465 622.796499,694.336065 622.796499,692.441903 C622.796499,690.550104 624.40159,689.013978 626.381366,689.013978 Z M590.521568,689.013978 C592.501344,689.013978 594.111381,690.550104 594.111381,692.441903 C594.111381,694.336065 592.501344,695.867465 590.521568,695.867465 C588.541791,695.867465 586.936701,694.336065 586.936701,692.441903 C586.936701,690.550104 588.541791,689.013978 590.521568,689.013978 Z M664.554098,689.009251 C666.533874,689.009251 668.143911,690.545378 668.143911,692.437176 C668.143911,694.331338 666.533874,695.862738 664.554098,695.862738 C662.574321,695.862738 660.969231,694.331338 660.969231,692.437176 C660.969231,690.545378 662.574321,689.009251 664.554098,689.009251 Z M700.413896,689.009251 C702.393673,689.009251 703.998763,690.545378 703.998763,692.437176 C703.998763,694.331338 702.393673,695.862738 700.413896,695.862738 C698.43412,695.862738 696.82903,694.331338 696.82903,692.437176 C696.82903,690.545378 698.43412,689.009251 700.413896,689.009251 Z M556.413896,689.009251 C558.393673,689.009251 559.998763,690.545378 559.998763,692.437176 C559.998763,694.331338 558.393673,695.862738 556.413896,695.862738 C554.43412,695.862738 552.82903,694.331338 552.82903,692.437176 C552.82903,690.545378 554.43412,689.009251 556.413896,689.009251 Z M520.554098,689.009251 C522.533874,689.009251 524.143911,690.545378 524.143911,692.437176 C524.143911,694.331338 522.533874,695.862738 520.554098,695.862738 C518.574321,695.862738 516.969231,694.331338 516.969231,692.437176 C516.969231,690.545378 518.574321,689.009251 520.554098,689.009251 Z M464.455795,671.880261 C466.435571,671.880261 468.040662,673.416387 468.040662,675.308186 C468.040662,677.202348 466.435571,678.736111 464.455795,678.736111 C462.472309,678.736111 460.865982,677.202348 460.865982,675.308186 C460.865982,673.416387 462.472309,671.880261 464.455795,671.880261 Z M572.589813,671.880261 C574.56959,671.880261 576.17468,673.416387 576.17468,675.308186 C576.17468,677.202348 574.56959,678.736111 572.589813,678.736111 C570.60509,678.736111 569,677.202348 569,675.308186 C569,673.416387 570.60509,671.880261 572.589813,671.880261 Z M608.455795,671.880261 C610.435571,671.880261 612.040662,673.416387 612.040662,675.308186 C612.040662,677.202348 610.435571,678.736111 608.455795,678.736111 C606.472309,678.736111 604.865982,677.202348 604.865982,675.308186 C604.865982,673.416387 606.472309,671.880261 608.455795,671.880261 Z M428.589813,671.880261 C430.56959,671.880261 432.17468,673.416387 432.17468,675.308186 C432.17468,677.202348 430.56959,678.736111 428.589813,678.736111 C426.60509,678.736111 425,677.202348 425,675.308186 C425,673.416387 426.60509,671.880261 428.589813,671.880261 Z M682.489562,671.875534 C684.469338,671.875534 686.074429,673.411661 686.074429,675.30346 C686.074429,677.197621 684.469338,678.731384 682.489562,678.731384 C680.504839,678.731384 678.899749,677.197621 678.899749,675.30346 C678.899749,673.411661 680.504839,671.875534 682.489562,671.875534 Z M646.62358,671.875534 C648.603357,671.875534 650.208447,673.411661 650.208447,675.30346 C650.208447,677.197621 648.603357,678.731384 646.62358,678.731384 C644.638858,678.731384 643.032531,677.197621 643.032531,675.30346 C643.032531,673.411661 644.638858,671.875534 646.62358,671.875534 Z M502.62358,671.875534 C504.603357,671.875534 506.208447,673.411661 506.208447,675.30346 C506.208447,677.197621 504.603357,678.731384 502.62358,678.731384 C500.638858,678.731384 499.032531,677.197621 499.032531,675.30346 C499.032531,673.411661 500.638858,671.875534 502.62358,671.875534 Z M538.489562,671.875534 C540.469338,671.875534 542.074429,673.411661 542.074429,675.30346 C542.074429,677.197621 540.469338,678.731384 538.489562,678.731384 C536.504839,678.731384 534.899749,677.197621 534.899749,675.30346 C534.899749,673.411661 536.504839,671.875534 538.489562,671.875534 Z M626.381366,654.747726 C628.361142,654.747726 629.966233,656.281489 629.966233,658.173287 C629.966233,660.067449 628.361142,661.601212 626.381366,661.601212 C624.40159,661.601212 622.796499,660.067449 622.796499,658.173287 C622.796499,656.281489 624.40159,654.747726 626.381366,654.747726 Z M590.521568,654.747726 C592.501344,654.747726 594.111381,656.281489 594.111381,658.173287 C594.111381,660.067449 592.501344,661.601212 590.521568,661.601212 C588.541791,661.601212 586.936701,660.067449 586.936701,658.173287 C586.936701,656.281489 588.541791,654.747726 590.521568,654.747726 Z M446.521568,654.747726 C448.501344,654.747726 450.111381,656.281489 450.111381,658.173287 C450.111381,660.067449 448.501344,661.601212 446.521568,661.601212 C444.541791,661.601212 442.936701,660.067449 442.936701,658.173287 C442.936701,656.281489 444.541791,654.747726 446.521568,654.747726 Z M482.381366,654.747726 C484.361142,654.747726 485.966233,656.281489 485.966233,658.173287 C485.966233,660.067449 484.361142,661.601212 482.381366,661.601212 C480.40159,661.601212 478.796499,660.067449 478.796499,658.173287 C478.796499,656.281489 480.40159,654.747726 482.381366,654.747726 Z M700.413896,654.742999 C702.393673,654.742999 703.998763,656.276762 703.998763,658.168561 C703.998763,660.062723 702.393673,661.596486 700.413896,661.596486 C698.43412,661.596486 696.82903,660.062723 696.82903,658.168561 C696.82903,656.276762 698.43412,654.742999 700.413896,654.742999 Z M556.413896,654.742999 C558.393673,654.742999 559.998763,656.276762 559.998763,658.168561 C559.998763,660.062723 558.393673,661.596486 556.413896,661.596486 C554.43412,661.596486 552.82903,660.062723 552.82903,658.168561 C552.82903,656.276762 554.43412,654.742999 556.413896,654.742999 Z M520.554098,654.742999 C522.533874,654.742999 524.143911,656.276762 524.143911,658.168561 C524.143911,660.062723 522.533874,661.596486 520.554098,661.596486 C518.574321,661.596486 516.969231,660.062723 516.969231,658.168561 C516.969231,656.276762 518.574321,654.742999 520.554098,654.742999 Z M664.554098,654.742999 C666.533874,654.742999 668.143911,656.276762 668.143911,658.168561 C668.143911,660.062723 666.533874,661.596486 664.554098,661.596486 C662.574321,661.596486 660.969231,660.062723 660.969231,658.168561 C660.969231,656.276762 662.574321,654.742999 664.554098,654.742999 Z M538.489562,641.398788 C540.469338,641.398788 542.074429,642.936096 542.074429,644.826713 C542.074429,646.720875 540.469338,648.253456 538.489562,648.253456 C536.504839,648.253456 534.899749,646.720875 534.899749,644.826713 C534.899749,642.936096 536.504839,641.398788 538.489562,641.398788 Z M682.489562,641.398788 C684.469338,641.398788 686.074429,642.936096 686.074429,644.826713 C686.074429,646.720875 684.469338,648.253456 682.489562,648.253456 C680.504839,648.253456 678.899749,646.720875 678.899749,644.826713 C678.899749,642.936096 680.504839,641.398788 682.489562,641.398788 Z M646.62358,641.398788 C648.603357,641.398788 650.208447,642.936096 650.208447,644.826713 C650.208447,646.720875 648.603357,648.253456 646.62358,648.253456 C644.638858,648.253456 643.033767,646.720875 643.033767,644.826713 C643.033767,642.936096 644.638858,641.398788 646.62358,641.398788 Z M502.62358,641.398788 C504.603357,641.398788 506.208447,642.936096 506.208447,644.826713 C506.208447,646.720875 504.603357,648.253456 502.62358,648.253456 C500.638858,648.253456 499.033767,646.720875 499.033767,644.826713 C499.033767,642.936096 500.638858,641.398788 502.62358,641.398788 Z M572.589813,641.398788 C574.56959,641.398788 576.17468,642.934914 576.17468,644.826713 C576.17468,646.720875 574.56959,648.252274 572.589813,648.252274 C570.60509,648.252274 569,646.720875 569,644.826713 C569,642.934914 570.60509,641.398788 572.589813,641.398788 Z M608.455795,641.398788 C610.435571,641.398788 612.040662,642.934914 612.040662,644.826713 C612.040662,646.720875 610.435571,648.252274 608.455795,648.252274 C606.472309,648.252274 604.865982,646.720875 604.865982,644.826713 C604.865982,642.934914 606.472309,641.398788 608.455795,641.398788 Z M428.589813,641.398788 C430.56959,641.398788 432.17468,642.934914 432.17468,644.826713 C432.17468,646.720875 430.56959,648.252274 428.589813,648.252274 C426.60509,648.252274 425,646.720875 425,644.826713 C425,642.934914 426.60509,641.398788 428.589813,641.398788 Z M464.455795,641.398788 C466.435571,641.398788 468.040662,642.934914 468.040662,644.826713 C468.040662,646.720875 466.435571,648.252274 464.455795,648.252274 C462.472309,648.252274 460.865982,646.720875 460.865982,644.826713 C460.865982,642.934914 462.472309,641.398788 464.455795,641.398788 Z M626.381366,624.266252 C628.361142,624.266252 629.966233,625.802379 629.966233,627.694177 C629.966233,629.588339 628.361142,631.119739 626.381366,631.119739 C624.40159,631.119739 622.796499,629.588339 622.796499,627.694177 C622.796499,625.802379 624.40159,624.266252 626.381366,624.266252 Z M700.415133,624.266252 C702.394909,624.266252 704,625.802379 704,627.694177 C704,629.588339 702.394909,631.119739 700.415133,631.119739 C698.435357,631.119739 696.830266,629.588339 696.830266,627.694177 C696.830266,625.802379 698.435357,624.266252 700.415133,624.266252 Z M664.555335,624.266252 C666.535111,624.266252 668.145148,625.802379 668.145148,627.694177 C668.145148,629.588339 666.535111,631.119739 664.555335,631.119739 C662.575558,631.119739 660.970468,629.588339 660.970468,627.694177 C660.970468,625.802379 662.575558,624.266252 664.555335,624.266252 Z M446.521568,624.266252 C448.501344,624.266252 450.111381,625.802379 450.111381,627.694177 C450.111381,629.588339 448.501344,631.119739 446.521568,631.119739 C444.541791,631.119739 442.936701,629.588339 442.936701,627.694177 C442.936701,625.802379 444.541791,624.266252 446.521568,624.266252 Z M482.381366,624.266252 C484.361142,624.266252 485.966233,625.802379 485.966233,627.694177 C485.966233,629.588339 484.361142,631.119739 482.381366,631.119739 C480.40159,631.119739 478.796499,629.588339 478.796499,627.694177 C478.796499,625.802379 480.40159,624.266252 482.381366,624.266252 Z M556.415133,624.266252 C558.394909,624.266252 560,625.802379 560,627.694177 C560,629.588339 558.394909,631.119739 556.415133,631.119739 C554.435357,631.119739 552.830266,629.588339 552.830266,627.694177 C552.830266,625.802379 554.435357,624.266252 556.415133,624.266252 Z M520.555335,624.266252 C522.535111,624.266252 524.145148,625.802379 524.145148,627.694177 C524.145148,629.588339 522.535111,631.119739 520.555335,631.119739 C518.575558,631.119739 516.970468,629.588339 516.970468,627.694177 C516.970468,625.802379 518.575558,624.266252 520.555335,624.266252 Z M590.521568,624.266252 C592.501344,624.266252 594.111381,625.802379 594.111381,627.694177 C594.111381,629.588339 592.501344,631.119739 590.521568,631.119739 C588.541791,631.119739 586.936701,629.588339 586.936701,627.694177 C586.936701,625.802379 588.541791,624.266252 590.521568,624.266252 Z M646.62358,607.132535 C648.603357,607.132535 650.208447,608.669843 650.208447,610.561642 C650.208447,612.455804 648.603357,613.989567 646.62358,613.989567 C644.638858,613.989567 643.033767,612.455804 643.033767,610.561642 C643.033767,608.669843 644.638858,607.132535 646.62358,607.132535 Z M682.489562,607.132535 C684.469338,607.132535 686.074429,608.669843 686.074429,610.561642 C686.074429,612.455804 684.469338,613.989567 682.489562,613.989567 C680.504839,613.989567 678.899749,612.455804 678.899749,610.561642 C678.899749,608.669843 680.504839,607.132535 682.489562,607.132535 Z M608.455795,607.132535 C610.435571,607.132535 612.040662,608.668662 612.040662,610.561642 C612.040662,612.455804 610.435571,613.989567 608.455795,613.989567 C606.472309,613.989567 604.865982,612.455804 604.865982,610.561642 C604.865982,608.668662 606.472309,607.132535 608.455795,607.132535 Z M428.589813,607.132535 C430.56959,607.132535 432.17468,608.668662 432.17468,610.561642 C432.17468,612.455804 430.56959,613.989567 428.589813,613.989567 C426.60509,613.989567 425,612.455804 425,610.561642 C425,608.668662 426.60509,607.132535 428.589813,607.132535 Z M464.455795,607.132535 C466.435571,607.132535 468.040662,608.668662 468.040662,610.561642 C468.040662,612.455804 466.435571,613.989567 464.455795,613.989567 C462.472309,613.989567 460.865982,612.455804 460.865982,610.561642 C460.865982,608.668662 462.472309,607.132535 464.455795,607.132535 Z M538.489562,607.132535 C540.469338,607.132535 542.074429,608.669843 542.074429,610.561642 C542.074429,612.455804 540.469338,613.989567 538.489562,613.989567 C536.504839,613.989567 534.899749,612.455804 534.899749,610.561642 C534.899749,608.669843 536.504839,607.132535 538.489562,607.132535 Z M502.62358,607.132535 C504.603357,607.132535 506.208447,608.669843 506.208447,610.561642 C506.208447,612.455804 504.603357,613.989567 502.62358,613.989567 C500.638858,613.989567 499.033767,612.455804 499.033767,610.561642 C499.033767,608.669843 500.638858,607.132535 502.62358,607.132535 Z M572.589813,607.132535 C574.56959,607.132535 576.17468,608.668662 576.17468,610.561642 C576.17468,612.455804 574.56959,613.989567 572.589813,613.989567 C570.60509,613.989567 569,612.455804 569,610.561642 C569,608.668662 570.60509,607.132535 572.589813,607.132535 Z M590.521568,590 C592.501344,590 594.111381,591.533763 594.111381,593.425562 C594.111381,595.319724 592.501344,596.853487 590.521568,596.853487 C588.541791,596.853487 586.936701,595.319724 586.936701,593.425562 C586.936701,591.533763 588.541791,590 590.521568,590 Z M626.381366,590 C628.361142,590 629.966233,591.533763 629.966233,593.425562 C629.966233,595.319724 628.361142,596.853487 626.381366,596.853487 C624.40159,596.853487 622.796499,595.319724 622.796499,593.425562 C622.796499,591.533763 624.40159,590 626.381366,590 Z M700.415133,590 C702.394909,590 704,591.533763 704,593.425562 C704,595.319724 702.394909,596.853487 700.415133,596.853487 C698.435357,596.853487 696.830266,595.319724 696.830266,593.425562 C696.830266,591.533763 698.435357,590 700.415133,590 Z M664.555335,590 C666.535111,590 668.145148,591.533763 668.145148,593.425562 C668.145148,595.319724 666.535111,596.853487 664.555335,596.853487 C662.575558,596.853487 660.970468,595.319724 660.970468,593.425562 C660.970468,591.533763 662.575558,590 664.555335,590 Z M520.555335,590 C522.535111,590 524.145148,591.533763 524.145148,593.425562 C524.145148,595.319724 522.535111,596.853487 520.555335,596.853487 C518.575558,596.853487 516.970468,595.319724 516.970468,593.425562 C516.970468,591.533763 518.575558,590 520.555335,590 Z M556.415133,590 C558.394909,590 560,591.533763 560,593.425562 C560,595.319724 558.394909,596.853487 556.415133,596.853487 C554.435357,596.853487 552.830266,595.319724 552.830266,593.425562 C552.830266,591.533763 554.435357,590 556.415133,590 Z M482.381366,590 C484.361142,590 485.966233,591.533763 485.966233,593.425562 C485.966233,595.319724 484.361142,596.853487 482.381366,596.853487 C480.40159,596.853487 478.796499,595.319724 478.796499,593.425562 C478.796499,591.533763 480.40159,590 482.381366,590 Z M446.521568,590 C448.501344,590 450.111381,591.533763 450.111381,593.425562 C450.111381,595.319724 448.501344,596.853487 446.521568,596.853487 C444.541791,596.853487 442.936701,595.319724 442.936701,593.425562 C442.936701,591.533763 444.541791,590 446.521568,590 Z M428.589813,573.146513 C430.56959,573.146513 432.17468,574.68264 432.17468,576.574438 C432.17468,578.4686 430.56959,580 428.589813,580 C426.60509,580 425,578.4686 425,576.574438 C425,574.68264 426.60509,573.146513 428.589813,573.146513 Z M464.455795,573.146513 C466.435571,573.146513 468.040662,574.68264 468.040662,576.574438 C468.040662,578.4686 466.435571,580 464.455795,580 C462.472309,580 460.865982,578.4686 460.865982,576.574438 C460.865982,574.68264 462.472309,573.146513 464.455795,573.146513 Z M608.455795,573.146513 C610.435571,573.146513 612.040662,574.68264 612.040662,576.574438 C612.040662,578.4686 610.435571,580 608.455795,580 C606.472309,580 604.865982,578.4686 604.865982,576.574438 C604.865982,574.68264 606.472309,573.146513 608.455795,573.146513 Z M572.589813,573.146513 C574.56959,573.146513 576.17468,574.68264 576.17468,576.574438 C576.17468,578.4686 574.56959,580 572.589813,580 C570.60509,580 569,578.4686 569,576.574438 C569,574.68264 570.60509,573.146513 572.589813,573.146513 Z M682.489562,573.141787 C684.469338,573.141787 686.074429,574.677913 686.074429,576.569712 C686.074429,578.463874 684.469338,579.995274 682.489562,579.995274 C680.504839,579.995274 678.899749,578.463874 678.899749,576.569712 C678.899749,574.677913 680.504839,573.141787 682.489562,573.141787 Z M646.62358,573.141787 C648.603357,573.141787 650.208447,574.677913 650.208447,576.569712 C650.208447,578.463874 648.603357,579.995274 646.62358,579.995274 C644.638858,579.995274 643.032531,578.463874 643.032531,576.569712 C643.032531,574.677913 644.638858,573.141787 646.62358,573.141787 Z M538.489562,573.141787 C540.469338,573.141787 542.074429,574.677913 542.074429,576.569712 C542.074429,578.463874 540.469338,579.995274 538.489562,579.995274 C536.504839,579.995274 534.899749,578.463874 534.899749,576.569712 C534.899749,574.677913 536.504839,573.141787 538.489562,573.141787 Z M502.62358,573.141787 C504.603357,573.141787 506.208447,574.677913 506.208447,576.569712 C506.208447,578.463874 504.603357,579.995274 502.62358,579.995274 C500.638858,579.995274 499.032531,578.463874 499.032531,576.569712 C499.032531,574.677913 500.638858,573.141787 502.62358,573.141787 Z M446.521568,556.013978 C448.501344,556.013978 450.111381,557.550104 450.111381,559.441903 C450.111381,561.336065 448.501344,562.867465 446.521568,562.867465 C444.541791,562.867465 442.936701,561.336065 442.936701,559.441903 C442.936701,557.550104 444.541791,556.013978 446.521568,556.013978 Z M590.521568,556.013978 C592.501344,556.013978 594.111381,557.550104 594.111381,559.441903 C594.111381,561.336065 592.501344,562.867465 590.521568,562.867465 C588.541791,562.867465 586.936701,561.336065 586.936701,559.441903 C586.936701,557.550104 588.541791,556.013978 590.521568,556.013978 Z M626.381366,556.013978 C628.361142,556.013978 629.966233,557.550104 629.966233,559.441903 C629.966233,561.336065 628.361142,562.867465 626.381366,562.867465 C624.40159,562.867465 622.796499,561.336065 622.796499,559.441903 C622.796499,557.550104 624.40159,556.013978 626.381366,556.013978 Z M482.381366,556.013978 C484.361142,556.013978 485.966233,557.550104 485.966233,559.441903 C485.966233,561.336065 484.361142,562.867465 482.381366,562.867465 C480.40159,562.867465 478.796499,561.336065 478.796499,559.441903 C478.796499,557.550104 480.40159,556.013978 482.381366,556.013978 Z M556.413896,556.009251 C558.393673,556.009251 559.998763,557.545378 559.998763,559.437176 C559.998763,561.331338 558.393673,562.862738 556.413896,562.862738 C554.43412,562.862738 552.82903,561.331338 552.82903,559.437176 C552.82903,557.545378 554.43412,556.009251 556.413896,556.009251 Z M700.413896,556.009251 C702.393673,556.009251 703.998763,557.545378 703.998763,559.437176 C703.998763,561.331338 702.393673,562.862738 700.413896,562.862738 C698.43412,562.862738 696.82903,561.331338 696.82903,559.437176 C696.82903,557.545378 698.43412,556.009251 700.413896,556.009251 Z M664.554098,556.009251 C666.533874,556.009251 668.143911,557.545378 668.143911,559.437176 C668.143911,561.331338 666.533874,562.862738 664.554098,562.862738 C662.574321,562.862738 660.969231,561.331338 660.969231,559.437176 C660.969231,557.545378 662.574321,556.009251 664.554098,556.009251 Z M520.554098,556.009251 C522.533874,556.009251 524.143911,557.545378 524.143911,559.437176 C524.143911,561.331338 522.533874,562.862738 520.554098,562.862738 C518.574321,562.862738 516.969231,561.331338 516.969231,559.437176 C516.969231,557.545378 518.574321,556.009251 520.554098,556.009251 Z M428.589813,538.880261 C430.56959,538.880261 432.17468,540.416387 432.17468,542.308186 C432.17468,544.202348 430.56959,545.736111 428.589813,545.736111 C426.60509,545.736111 425,544.202348 425,542.308186 C425,540.416387 426.60509,538.880261 428.589813,538.880261 Z M608.455795,538.880261 C610.435571,538.880261 612.040662,540.416387 612.040662,542.308186 C612.040662,544.202348 610.435571,545.736111 608.455795,545.736111 C606.472309,545.736111 604.865982,544.202348 604.865982,542.308186 C604.865982,540.416387 606.472309,538.880261 608.455795,538.880261 Z M572.589813,538.880261 C574.56959,538.880261 576.17468,540.416387 576.17468,542.308186 C576.17468,544.202348 574.56959,545.736111 572.589813,545.736111 C570.60509,545.736111 569,544.202348 569,542.308186 C569,540.416387 570.60509,538.880261 572.589813,538.880261 Z M464.455795,538.880261 C466.435571,538.880261 468.040662,540.416387 468.040662,542.308186 C468.040662,544.202348 466.435571,545.736111 464.455795,545.736111 C462.472309,545.736111 460.865982,544.202348 460.865982,542.308186 C460.865982,540.416387 462.472309,538.880261 464.455795,538.880261 Z M502.62358,538.875534 C504.603357,538.875534 506.208447,540.411661 506.208447,542.303459 C506.208447,544.197621 504.603357,545.731384 502.62358,545.731384 C500.638858,545.731384 499.032531,544.197621 499.032531,542.303459 C499.032531,540.411661 500.638858,538.875534 502.62358,538.875534 Z M646.62358,538.875534 C648.603357,538.875534 650.208447,540.411661 650.208447,542.30346 C650.208447,544.197621 648.603357,545.731384 646.62358,545.731384 C644.638858,545.731384 643.032531,544.197621 643.032531,542.30346 C643.032531,540.411661 644.638858,538.875534 646.62358,538.875534 Z M682.489562,538.875534 C684.469338,538.875534 686.074429,540.411661 686.074429,542.30346 C686.074429,544.197621 684.469338,545.731384 682.489562,545.731384 C680.504839,545.731384 678.899749,544.197621 678.899749,542.30346 C678.899749,540.411661 680.504839,538.875534 682.489562,538.875534 Z M538.489562,538.875534 C540.469338,538.875534 542.074429,540.411661 542.074429,542.303459 C542.074429,544.197621 540.469338,545.731384 538.489562,545.731384 C536.504839,545.731384 534.899749,544.197621 534.899749,542.303459 C534.899749,540.411661 536.504839,538.875534 538.489562,538.875534 Z M446.521568,521.747726 C448.501344,521.747726 450.111381,523.281489 450.111381,525.173287 C450.111381,527.067449 448.501344,528.601212 446.521568,528.601212 C444.541791,528.601212 442.936701,527.067449 442.936701,525.173287 C442.936701,523.281489 444.541791,521.747726 446.521568,521.747726 Z M482.381366,521.747726 C484.361142,521.747726 485.966233,523.281489 485.966233,525.173287 C485.966233,527.067449 484.361142,528.601212 482.381366,528.601212 C480.40159,528.601212 478.796499,527.067449 478.796499,525.173287 C478.796499,523.281489 480.40159,521.747726 482.381366,521.747726 Z M626.381366,521.747726 C628.361142,521.747726 629.966233,523.281489 629.966233,525.173287 C629.966233,527.067449 628.361142,528.601212 626.381366,528.601212 C624.40159,528.601212 622.796499,527.067449 622.796499,525.173287 C622.796499,523.281489 624.40159,521.747726 626.381366,521.747726 Z M590.521568,521.747726 C592.501344,521.747726 594.111381,523.281489 594.111381,525.173287 C594.111381,527.067449 592.501344,528.601212 590.521568,528.601212 C588.541791,528.601212 586.936701,527.067449 586.936701,525.173287 C586.936701,523.281489 588.541791,521.747726 590.521568,521.747726 Z M556.413896,521.742999 C558.393673,521.742999 559.998763,523.276762 559.998763,525.168561 C559.998763,527.062723 558.393673,528.596486 556.413896,528.596486 C554.43412,528.596486 552.82903,527.062723 552.82903,525.168561 C552.82903,523.276762 554.43412,521.742999 556.413896,521.742999 Z M700.413896,521.742999 C702.393673,521.742999 703.998763,523.276762 703.998763,525.168561 C703.998763,527.062723 702.393673,528.596486 700.413896,528.596486 C698.43412,528.596486 696.82903,527.062723 696.82903,525.168561 C696.82903,523.276762 698.43412,521.742999 700.413896,521.742999 Z M664.554098,521.742999 C666.533874,521.742999 668.143911,523.276762 668.143911,525.168561 C668.143911,527.062723 666.533874,528.596486 664.554098,528.596486 C662.574321,528.596486 660.969231,527.062723 660.969231,525.168561 C660.969231,523.276762 662.574321,521.742999 664.554098,521.742999 Z M520.554098,521.742999 C522.533874,521.742999 524.143911,523.276762 524.143911,525.168561 C524.143911,527.062723 522.533874,528.596486 520.554098,528.596486 C518.574321,528.596486 516.969231,527.062723 516.969231,525.168561 C516.969231,523.276762 518.574321,521.742999 520.554098,521.742999 Z M646.62358,508.398788 C648.603357,508.398788 650.208447,509.936096 650.208447,511.826713 C650.208447,513.720875 648.603357,515.253456 646.62358,515.253456 C644.638858,515.253456 643.033767,513.720875 643.033767,511.826713 C643.033767,509.936096 644.638858,508.398788 646.62358,508.398788 Z M538.489562,508.398788 C540.469338,508.398788 542.074429,509.936096 542.074429,511.826713 C542.074429,513.720875 540.469338,515.253456 538.489562,515.253456 C536.504839,515.253456 534.899749,513.720875 534.899749,511.826713 C534.899749,509.936096 536.504839,508.398788 538.489562,508.398788 Z M502.62358,508.398788 C504.603357,508.398788 506.208447,509.936096 506.208447,511.826713 C506.208447,513.720875 504.603357,515.253456 502.62358,515.253456 C500.638858,515.253456 499.033767,513.720875 499.033767,511.826713 C499.033767,509.936096 500.638858,508.398788 502.62358,508.398788 Z M682.489562,508.398788 C684.469338,508.398788 686.074429,509.936096 686.074429,511.826713 C686.074429,513.720875 684.469338,515.253456 682.489562,515.253456 C680.504839,515.253456 678.899749,513.720875 678.899749,511.826713 C678.899749,509.936096 680.504839,508.398788 682.489562,508.398788 Z M428.589813,508.398788 C430.56959,508.398788 432.17468,509.934914 432.17468,511.826713 C432.17468,513.720875 430.56959,515.252274 428.589813,515.252274 C426.60509,515.252274 425,513.720875 425,511.826713 C425,509.934914 426.60509,508.398788 428.589813,508.398788 Z M464.455795,508.398788 C466.435571,508.398788 468.040662,509.934914 468.040662,511.826713 C468.040662,513.720875 466.435571,515.252274 464.455795,515.252274 C462.472309,515.252274 460.865982,513.720875 460.865982,511.826713 C460.865982,509.934914 462.472309,508.398788 464.455795,508.398788 Z M608.455795,508.398788 C610.435571,508.398788 612.040662,509.934914 612.040662,511.826713 C612.040662,513.720875 610.435571,515.252274 608.455795,515.252274 C606.472309,515.252274 604.865982,513.720875 604.865982,511.826713 C604.865982,509.934914 606.472309,508.398788 608.455795,508.398788 Z M572.589813,508.398788 C574.56959,508.398788 576.17468,509.934914 576.17468,511.826713 C576.17468,513.720875 574.56959,515.252274 572.589813,515.252274 C570.60509,515.252274 569,513.720875 569,511.826713 C569,509.934914 570.60509,508.398788 572.589813,508.398788 Z M590.521568,491.266252 C592.501344,491.266252 594.111381,492.802379 594.111381,494.694177 C594.111381,496.588339 592.501344,498.119739 590.521568,498.119739 C588.541791,498.119739 586.936701,496.588339 586.936701,494.694177 C586.936701,492.802379 588.541791,491.266252 590.521568,491.266252 Z M626.381366,491.266252 C628.361142,491.266252 629.966233,492.802379 629.966233,494.694177 C629.966233,496.588339 628.361142,498.119739 626.381366,498.119739 C624.40159,498.119739 622.796499,496.588339 622.796499,494.694177 C622.796499,492.802379 624.40159,491.266252 626.381366,491.266252 Z M700.415133,491.266252 C702.394909,491.266252 704,492.802379 704,494.694177 C704,496.588339 702.394909,498.119739 700.415133,498.119739 C698.435357,498.119739 696.830266,496.588339 696.830266,494.694177 C696.830266,492.802379 698.435357,491.266252 700.415133,491.266252 Z M664.555335,491.266252 C666.535111,491.266252 668.145148,492.802379 668.145148,494.694177 C668.145148,496.588339 666.535111,498.119739 664.555335,498.119739 C662.575558,498.119739 660.970468,496.588339 660.970468,494.694177 C660.970468,492.802379 662.575558,491.266252 664.555335,491.266252 Z M520.555335,491.266252 C522.535111,491.266252 524.145148,492.802379 524.145148,494.694177 C524.145148,496.588339 522.535111,498.119739 520.555335,498.119739 C518.575558,498.119739 516.970468,496.588339 516.970468,494.694177 C516.970468,492.802379 518.575558,491.266252 520.555335,491.266252 Z M556.415133,491.266252 C558.394909,491.266252 560,492.802379 560,494.694177 C560,496.588339 558.394909,498.119739 556.415133,498.119739 C554.435357,498.119739 552.830266,496.588339 552.830266,494.694177 C552.830266,492.802379 554.435357,491.266252 556.415133,491.266252 Z M482.381366,491.266252 C484.361142,491.266252 485.966233,492.802379 485.966233,494.694177 C485.966233,496.588339 484.361142,498.119739 482.381366,498.119739 C480.40159,498.119739 478.796499,496.588339 478.796499,494.694177 C478.796499,492.802379 480.40159,491.266252 482.381366,491.266252 Z M446.521568,491.266252 C448.501344,491.266252 450.111381,492.802379 450.111381,494.694177 C450.111381,496.588339 448.501344,498.119739 446.521568,498.119739 C444.541791,498.119739 442.936701,496.588339 442.936701,494.694177 C442.936701,492.802379 444.541791,491.266252 446.521568,491.266252 Z M646.62358,474.132535 C648.603357,474.132535 650.208447,475.669843 650.208447,477.561642 C650.208447,479.455804 648.603357,480.989567 646.62358,480.989567 C644.638858,480.989567 643.033767,479.455804 643.033767,477.561642 C643.033767,475.669843 644.638858,474.132535 646.62358,474.132535 Z M502.62358,474.132535 C504.603357,474.132535 506.208447,475.669843 506.208447,477.561642 C506.208447,479.455804 504.603357,480.989567 502.62358,480.989567 C500.638858,480.989567 499.033767,479.455804 499.033767,477.561642 C499.033767,475.669843 500.638858,474.132535 502.62358,474.132535 Z M682.489562,474.132535 C684.469338,474.132535 686.074429,475.669843 686.074429,477.561642 C686.074429,479.455804 684.469338,480.989567 682.489562,480.989567 C680.504839,480.989567 678.899749,479.455804 678.899749,477.561642 C678.899749,475.669843 680.504839,474.132535 682.489562,474.132535 Z M538.489562,474.132535 C540.469338,474.132535 542.074429,475.669843 542.074429,477.561642 C542.074429,479.455804 540.469338,480.989567 538.489562,480.989567 C536.504839,480.989567 534.899749,479.455804 534.899749,477.561642 C534.899749,475.669843 536.504839,474.132535 538.489562,474.132535 Z M464.455795,474.132535 C466.435571,474.132535 468.040662,475.668662 468.040662,477.561642 C468.040662,479.455804 466.435571,480.989567 464.455795,480.989567 C462.472309,480.989567 460.865982,479.455804 460.865982,477.561642 C460.865982,475.668662 462.472309,474.132535 464.455795,474.132535 Z M428.589813,474.132535 C430.56959,474.132535 432.17468,475.668662 432.17468,477.561642 C432.17468,479.455804 430.56959,480.989567 428.589813,480.989567 C426.60509,480.989567 425,479.455804 425,477.561642 C425,475.668662 426.60509,474.132535 428.589813,474.132535 Z M608.455795,474.132535 C610.435571,474.132535 612.040662,475.668662 612.040662,477.561642 C612.040662,479.455804 610.435571,480.989567 608.455795,480.989567 C606.472309,480.989567 604.865982,479.455804 604.865982,477.561642 C604.865982,475.668662 606.472309,474.132535 608.455795,474.132535 Z M572.589813,474.132535 C574.56959,474.132535 576.17468,475.668662 576.17468,477.561642 C576.17468,479.455804 574.56959,480.989567 572.589813,480.989567 C570.60509,480.989567 569,479.455804 569,477.561642 C569,475.668662 570.60509,474.132535 572.589813,474.132535 Z M626.381366,457 C628.361142,457 629.966233,458.533763 629.966233,460.425562 C629.966233,462.319724 628.361142,463.853487 626.381366,463.853487 C624.40159,463.853487 622.796499,462.319724 622.796499,460.425562 C622.796499,458.533763 624.40159,457 626.381366,457 Z M482.381366,457 C484.361142,457 485.966233,458.533763 485.966233,460.425562 C485.966233,462.319724 484.361142,463.853487 482.381366,463.853487 C480.40159,463.853487 478.796499,462.319724 478.796499,460.425562 C478.796499,458.533763 480.40159,457 482.381366,457 Z M446.521568,457 C448.501344,457 450.111381,458.533763 450.111381,460.425562 C450.111381,462.319724 448.501344,463.853487 446.521568,463.853487 C444.541791,463.853487 442.936701,462.319724 442.936701,460.425562 C442.936701,458.533763 444.541791,457 446.521568,457 Z M520.555335,457 C522.535111,457 524.145148,458.533763 524.145148,460.425562 C524.145148,462.319724 522.535111,463.853487 520.555335,463.853487 C518.575558,463.853487 516.970468,462.319724 516.970468,460.425562 C516.970468,458.533763 518.575558,457 520.555335,457 Z M556.415133,457 C558.394909,457 560,458.533763 560,460.425562 C560,462.319724 558.394909,463.853487 556.415133,463.853487 C554.435357,463.853487 552.830266,462.319724 552.830266,460.425562 C552.830266,458.533763 554.435357,457 556.415133,457 Z M590.521568,457 C592.501344,457 594.111381,458.533763 594.111381,460.425562 C594.111381,462.319724 592.501344,463.853487 590.521568,463.853487 C588.541791,463.853487 586.936701,462.319724 586.936701,460.425562 C586.936701,458.533763 588.541791,457 590.521568,457 Z M700.415133,457 C702.394909,457 704,458.533763 704,460.425562 C704,462.319724 702.394909,463.853487 700.415133,463.853487 C698.435357,463.853487 696.830266,462.319724 696.830266,460.425562 C696.830266,458.533763 698.435357,457 700.415133,457 Z M664.555335,457 C666.535111,457 668.145148,458.533763 668.145148,460.425562 C668.145148,462.319724 666.535111,463.853487 664.555335,463.853487 C662.575558,463.853487 660.970468,462.319724 660.970468,460.425562 C660.970468,458.533763 662.575558,457 664.555335,457 Z" id="Combined-Shape-Copy" fill="#423062" fill-rule="nonzero" opacity="0.6" mask="url(#mask-2)"></path>
                                    <polygon id="Polygon" fill="#22AA9A" mask="url(#mask-2)" transform="translate(974.515625, 215.742187) rotate(25.000000) translate(-974.515625, -215.742187) " points="974.515625 5.2421875 1139.09115 84.4975842 1179.73795 262.582844 1065.84815 405.396134 883.183098 405.396134 769.293299 262.582844 809.940098 84.4975842"></polygon>
                                    <path d="M803.5,539 C867.799145,539 920,591.200607 920,655.499447 C920,719.798286 867.799145,772 803.5,772 C739.200855,772 687,719.798286 687,655.499447 C687,591.200607 739.200855,539 803.5,539 Z" fill="#22AA9A" mask="url(#mask-2)"></path>
                                    <g id="Group-9" mask="url(#mask-2)">
                                        <g transform="translate(739.000000, 45.000000) scale(1, -1) translate(-739.000000, -45.000000) translate(479.000000, -44.000000)">
                                            <mask id="mask-4" fill="white">
                                                <use xlink:href="#path-3"></use>
                                            </mask>
                                            <g id="Clip-6" stroke="none" fill="none"></g>
                                            <polygon id="Fill-5" stroke="none" fill="#007F98" fill-rule="evenodd" mask="url(#mask-4)" points="140.4993 104 281 392 0 392"></polygon>
                                            <polygon id="Fill-8" stroke="none" fill="#007F98" fill-rule="evenodd" mask="url(#mask-4)" points="243.496153 58 384 346 103 346"></polygon>
                                        </g>
                                    </g>
                                    <polygon id="Triangle" fill="#007F98" mask="url(#mask-2)" points="587.5 539 784 932 391 932"></polygon>
                                </g>
                            </g>
                        </g>
                    </g>
                </svg>